HIERARCHY
ROOT Spine
{
    OFFSET 0.0 0.0 -0.0
    CHANNELS 6 Xposition Yposition Zposition Zrotation Xrotation Yrotation
    JOINT ShoulderCenter
    {
        OFFSET 0.0 0.20571570098400116 0.0
        CHANNELS 3 Zrotation Xrotation Yrotation
        JOINT LeftShoulder
        {
            OFFSET 0.15562626719474792 0.0 0.0
            CHANNELS 3 Zrotation Xrotation Yrotation
            JOINT LeftElbow
            {
                OFFSET 0.20139643549919128 0.0 0.0
                CHANNELS 3 Zrotation Xrotation Yrotation
                JOINT LeftHand
                {
                    OFFSET 0.30991435050964355 0.0 0.0
                    CHANNELS 3 Zrotation Xrotation Yrotation
                    End Site
                    {
                        OFFSET 0.12396572530269623 0.0 0.0
                    }
                }
            }
        }
        JOINT RightShoulder
        {
            OFFSET -0.15562626719474792 0.0 0.0
            CHANNELS 3 Zrotation Xrotation Yrotation
            JOINT RightElbow
            {
                OFFSET -0.20139643549919128 0.0 0.0
                CHANNELS 3 Zrotation Xrotation Yrotation
                JOINT RightHand
                {
                    OFFSET -0.30991435050964355 0.0 0.0
                    CHANNELS 3 Zrotation Xrotation Yrotation
                    End Site
                    {
                        OFFSET -0.12396572530269623 0.0 0.0
                    }
                }
            }
        }
        End Site
        {
            OFFSET 0.0 0.08228626847267151 0.0
        }
    }
    JOINT LeftHip
    {
        OFFSET 0.19021277342712178 -0.19021277342712178 0.0
        CHANNELS 3 Zrotation Xrotation Yrotation
        JOINT LeftKnee
        {
            OFFSET 0.0 -0.3443489074707031 0.0
            CHANNELS 3 Zrotation Xrotation Yrotation
            JOINT LeftFoot
            {
                OFFSET 0.0 -0.3603968024253845 0.0
                CHANNELS 3 Zrotation Xrotation Yrotation
                End Site
                {
                    OFFSET 0.0 0.0 0.144158735871315
                }
            }
        }
    }
    JOINT RightHip
    {
        OFFSET -0.19021277342712178 -0.19021277342712178 0.0
        CHANNELS 3 Zrotation Xrotation Yrotation
        JOINT RightKnee
        {
            OFFSET 0.0 -0.3443489074707031 0.0
            CHANNELS 3 Zrotation Xrotation Yrotation
            JOINT RightFoot
            {
                OFFSET 0.0 -0.3603968024253845 0.0
                CHANNELS 3 Zrotation Xrotation Yrotation
                End Site
                {
                    OFFSET 0.0 0.0 0.144158735871315
                }
            }
        }
    }
}
MOTION
Frames: 13
Frame Time: 0.03333333333333333
-0.5677164793014526 -0.15584750473499298 3.6946239471435547 1.9791553474865151 -25.407351482112485 144.01494766291148 -9.366790024008675e-07 -1.4099147690809333e-06 1.455442430873899 112.18897839394714 -27.77828166281564 -157.18793040224486 -3.172084990622563e-06 1.5989582198304292e-06 80.68735556362437 0.0 0.0 0.0 -114.93324988966761 -36.56364552877795 143.48150252866398 7.731401041547886e-07 -2.764579867559478e-06 -69.98659347463847 -6.3611093629270335e-15 3.531125038440127e-31 -6.3611093629270335e-15 110.17870886067352 -74.69840951005044 -177.3808293029028 73.25683986754285 34.777687961839 -72.69276615832437 1.4908850069360234e-15 0.0 0.0 -95.090018931495 -59.59984376563877 -178.16675982089575 -73.66537137485581 40.32561598236 79.22674798732017 7.951386703658792e-16 6.207055731633036e-33 8.945310041616142e-16
-0.5678964853286743 -0.1557805985212326 3.6947290897369385 1.9320085670048122 -25.256892548235427 144.12748789757242 -1.6794425038144985e-06 1.3263763204515128e-06 4.810225557303187 112.45221384371314 -30.14487923224619 -155.88046366550273 -3.0216335646647186e-06 8.084352597361521e-07 80.63550005645799 5.517382872562698e-33 3.975693351829397e-16 -1.5902773407317588e-15 -128.7477030427328 -31.811596747203215 138.27177759442498 -7.635573284580139e-06 7.027913137783335e-07 -79.92401931821529 6.361109362927031e-15 6.361109362927031e-15 -3.531125038440127e-31 113.87715492535312 -74.1868474941166 -173.78381749396885 73.88908614342749 34.19619585129615 -71.64720145244547 -9.93923337957349e-17 -3.4483642953516864e-34 3.975693351829396e-16 -95.4503433519508 -59.263778623425985 -178.50004705554565 -74.43520572403136 40.79468711362515 80.07772264490433 7.951386703658794e-16 4.138037154422024e-33 5.963540027744096e-16
-0.568715512752533 -0.1566735953092575 3.6950109004974365 1.621461382659277 -25.06720021284314 145.73167742068506 -5.689676845502614e-07 -4.174021960403106e-07 6.518011946518545 113.36356733922445 -33.64292903342696 -153.81539222410703 2.4147447380698245e-06 1.8417082895640517e-06 80.85252009462727 -3.1805546814635168e-15 3.975693351829396e-16 1.1034765745125397e-32 -179.02855098058876 -14.334582212656981 103.13647054587618 -1.2568146425494226e-06 -3.4557847869582552e-06 -61.654644629516234 3.1805546814635164e-15 4.770832022195274e-15 -1.3241718894150476e-31 116.75107610823488 -76.45788502615315 -171.3572969099891 73.22620740842576 34.18674166365549 -70.16721562864527 -1.2921003393445538e-15 -4.482873583957193e-33 3.975693351829396e-16 -97.19818186305686 -56.26782963509768 178.8772677124706 -77.1876637050855 40.159156899752716 82.18403537799955 -7.951386703658792e-16 4.62080815577126e-32 -6.6592863643142385e-15
-0.5685440897941589 -0.15638110041618347 3.6950509548187256 1.3202366648881296 -24.867886134028637 145.86659615759618 3.135923337412785e-07 -9.004657170012027e-07 6.161823942832274 115.53672036170101 -35.067211136800296 -152.39012325966394 -5.338983564482941e-06 4.2420011354234155e-06 81.7561482541827 -3.1805546814635168e-15 3.975693351829396e-16 1.1034765745125397e-32 154.0493028146203 -5.608509368975564 92.92233016225062 1.0843999764036907e-06 -5.1272500228787766e-06 -60.0439604917086 -1.5902773407317584e-15 -3.1805546814635168e-15 -6.3611093629270335e-15 113.0051777285285 -77.8195163742879 -174.79961669130256 92.83556992248226 30.34750870455047 -107.54631484418782 0.0 0.0 -2.385416011097637e-15 -97.46200792295645 -55.98446387529261 178.87847545861925 -97.94849877504447 45.542052185780854 111.53221114714304 -7.951386703658792e-16 1.1034765745125397e-32 -1.5902773407317584e-15
-0.5684916973114014 -0.15623149275779724 3.6956069469451904 1.1427437913156209 -24.526324643484283 146.16267536696108 5.299548768529627e-08 -1.0215641525301485e-06 5.748687135274715 115.52334396811273 -35.85788611411301 -152.45507291106168 -5.520583115654296e-06 7.315359873282872e-07 83.83469033031027 0.0 0.0 0.0 174.59484626239245 -2.1505839184654465 94.66390963223782 -3.795427789291621e-06 3.384623265225384e-06 -58.316609097952956 -1.5902773407317584e-15 0.0 0.0 117.7743824072669 -77.16614393834166 -169.79079022553006 73.78239099834093 33.936340733225144 -70.35654202091486 1.3914926731402886e-15 -1.5902773407317584e-15 7.951386703658792e-16 -97.74706067439284 -55.59891563979845 178.8754541445459 -103.1468862670294 52.3957817232052 115.6181194939979 1.1927080055488188e-15 -7.951386703658792e-16 1.5902773407317584e-15
-0.5674666166305542 -0.15678170323371887 3.696247100830078 0.3774801474372482 -24.43922860390136 146.41754714219604 6.055739263420118e-07 -1.326488376427256e-06 5.095325255370711 115.12711015330613 -35.62556045978879 -152.2510909945183 -4.804544705962667e-06 9.244515160630647e-07 84.3529343697938 -1.5902773407317584e-15 0.0 0.0 -176.68875018555897 -8.760970484840966 98.32028444527309 -2.1744037897384386e-06 -2.7496402640324556e-06 -62.96814883573 0.0 0.0 -6.3611093629270335e-15 119.63332755119762 -77.54199671641716 -167.48346276281856 73.70716232166845 34.16412398057218 -69.98760938700094 4.969616689786745e-16 1.7241821476758432e-33 3.975693351829396e-16 -98.98895452941258 -54.89131158986208 178.02093940051392 -98.3961683712851 45.46805660685465 111.60544485945915 3.975693351829396e-16 7.951386703658792e-16 3.0811623476677818e-15
-0.5673198103904724 -0.15671899914741516 3.696563959121704 0.20183960131925774 -24.277916575362738 146.75524578095752 -1.2419560464182744e-07 -8.288870346115592e-07 5.0391068229336105 115.8915931530196 -35.63077661736472 -152.93312705380413 -7.036697971730979e-07 -3.313210919915323e-06 84.20183682326262 -3.1805546814635168e-15 0.0 0.0 170.8394560369351 -12.82752359569474 98.90784470731789 1.4967501125034176e-06 -3.461495216890692e-06 -65.89202982725246 3.1805546814635168e-15 0.0 0.0 121.89356130076389 -77.66492761530553 -165.10567426159585 94.9440917768127 28.890659166902324 -108.39950494855059 3.1805546814635168e-15 -4.4139062980501586e-32 -1.5902773407317584e-15 -99.67026886252044 -54.4129833871083 177.53877526016188 -78.40571838025986 39.75113919634761 82.7422676237426 -7.951386703658791e-16 1.517280289954742e-32 -2.1866313435061676e-15
-0.5665091872215271 -0.1574254035949707 3.697805881500244 -0.16868115868231448 -24.126327633139905 146.99156956719676 3.866350796636244e-07 -1.3774495584842902e-06 5.024407987658251 115.60199835711822 -35.26445543323496 -152.47146768222186 -3.903549429679651e-06 -8.34802600888058e-07 83.135895097397 -1.5902773407317584e-15 6.3611093629270335e-15 8.827812596100317e-32 155.2976072680844 -3.4607618146145573 97.7560963373399 3.5357695359269054e-06 6.675730277259932e-06 -70.36938372922668 1.5902773407317584e-15 -4.770832022195275e-15 6.620859447075238e-32 123.79411953165894 -77.64234489031897 -163.10672792519009 97.07056207804635 30.582487173739636 -110.71390460068434 7.951386703658791e-16 4.965644585306429e-32 7.156248033292912e-15 -100.15000215659153 -54.053667390842676 177.20772650709418 -78.9044327173885 39.48167376454133 83.23440491736001 -7.951386703658791e-16 5.310481014841597e-32 -7.653209702271585e-15
-0.5665255188941956 -0.15742990374565125 3.6977601051330566 -0.292045057752892 -24.064785831878993 147.04380178764677 2.0537370714203024e-07 -3.272541069480694e-08 4.935442521241633 116.23699540873592 -35.73043259697454 -152.76235656751624 -2.5468036565301525e-06 2.3053556213669976e-06 84.81576792019737 -1.5902773407317582e-15 6.361109362927033e-15 8.827812596100317e-32 157.86563983464086 -7.603003869637776 99.2345015618583 -2.540409321811895e-07 -3.4068860512691107e-06 -89.77323279567192 -1.5902773407317584e-15 4.4139062980501586e-32 -3.1805546814635168e-15 123.53257518435618 -78.11371715022749 -163.71362647681312 74.72806205110584 35.718152821220855 -71.37519324158592 2.3854160110976376e-15 -1.6552148617688095e-32 -7.951386703658792e-16 -100.66097452039814 -53.59255907405816 176.4757591502149 -79.39189992725608 39.142716691926005 83.22435196462767 7.951386703658791e-16 -1.5902773407317584e-15 -5.665363026356889e-15
-0.5662509799003601 -0.15773870050907135 3.6979479789733887 -0.3567962965135349 -24.02139572878873 147.0183559993602 -8.69757026959438e-08 2.6760133646999075e-07 4.377849850777355 116.574618276153 -35.56339916859453 -153.05218269788978 -3.3467419192370804e-07 2.2519708577214953e-06 84.6431386318455 -3.1805546814635168e-15 3.975693351829396e-16 1.1034765745125397e-32 177.18208908859415 -12.73439129425195 109.75304167896638 -3.7567754055224637e-06 -3.514539734383686e-06 -72.2219369759976 -3.1805546814635164e-15 4.770832022195274e-15 1.3241718894150476e-31 121.3893100933571 -78.97719811644077 -165.85988878845 92.23711647710847 30.040612900003342 -103.813568066725 3.1805546814635168e-15 1.7655625192200634e-31 6.3611093629270335e-15 -101.28742960005505 -53.483539108298125 175.9237096770376 -79.70850358484867 39.01634577046199 83.0110461255598 -1.3793457181406746e-33 -1.5902773407317584e-15 -9.93923337957349e-17
-0.5661517977714539 -0.1577599048614502 3.698086977005005 -0.3430902155290222 -24.01984924098151 147.02273851576658 1.1774252029571787e-06 -3.389484456595504e-07 4.385118421976828 116.10744248707624 -34.782953997470095 -154.0380779845146 -2.172790015274213e-06 2.513878688919759e-06 84.82644073995593 3.1805546814635164e-15 6.758678698109972e-15 -1.5902773407317584e-15 -146.77557245865438 -24.78366551094931 148.94013454891953 -7.088493005840398e-08 -2.196653667107444e-07 -103.11067122845081 -3.180554681463516e-15 -6.361109362927032e-15 -1.7655625192200634e-31 122.76458346132667 -78.50098000638965 -164.49241852802305 91.89495479041736 30.782558372028966 -102.16927788361004 4.770832022195274e-15 -9.931289170612858e-32 -2.385416011097637e-15 -101.52289566241582 -53.452206167991754 175.7361111293253 -79.80794026459253 38.98990774495794 82.93726053591733 7.951386703658791e-16 -5.517382872562698e-33 -7.951386703658791e-16
-0.5660465955734253 -0.15806210041046143 3.6983940601348877 -0.3290705722640817 -24.066162421452184 147.40336539085266 -6.344834973056224e-07 1.3106706244715995e-06 4.01050067112151 116.47845098671112 -35.72268337342488 -153.89625151675247 -2.2023305096306424e-06 -3.7924199515501843e-06 85.11167273463559 1.590277340731758e-15 -1.2722218725854065e-14 -1.590277340731758e-15 -141.62342243768543 -23.976941226997766 155.08790581793951 2.882144201173421e-07 -2.2225746994252295e-06 -105.37941406300132 3.1805546814635168e-15 0.0 0.0 120.9633880680881 -79.38125469725095 -166.22801232690964 96.75865298353915 31.24129178715773 -111.6778526315945 -3.1805546814635168e-15 1.3241718894150476e-31 -4.770832022195275e-15 -101.62078589752052 -53.092594668568424 175.68052101153154 -79.9419553470644 39.08351678733911 82.98910251744712 -1.517280289954742e-32 -1.5902773407317584e-15 -1.0933156717530838e-15
-0.5664488077163696 -0.15927770733833313 3.698554039001465 -0.3925329728563684 -24.014391953247426 147.53619635505058 4.6591622188390417e-07 1.3036268140453205e-06 4.026454574523832 116.5647332971339 -36.66120211621968 -153.7953198380645 -1.3794241618831118e-08 -1.0967750285399942e-06 82.94700904064894 1.5902773407317584e-15 -1.9878466759146975e-16 3.1805546814635168e-15 -139.56857221071832 -27.16929141197681 169.48594995876192 1.7945663943972883e-06 3.567077904400593e-06 -119.40307353184217 0.0 7.951386703658792e-15 0.0 125.71869785077054 -78.72797349418154 -161.48988144047095 97.5958266089534 30.84039874869834 -111.55564649059754 0.0 0.0 3.1805546814635168e-15 -102.56087107465262 -52.6116759429417 174.81293103922198 -80.7424959329806 38.92440022984664 83.12128401623609 1.9310840053969444e-32 1.590277340731758e-15 -1.3914926731402882e-15
